<mxfile host="app.diagrams.net" agent="Mozilla/5.0 (Windows NT 10.0; Win64; x64) AppleWebKit/537.36 (KHTML, like Gecko) Chrome/137.0.0.0 Safari/537.36 Edg/137.0.0.0" version="27.1.4">
  <diagram name="Page-1" id="D1osDZgk4KxM9U22PhKE">
    <mxGraphModel dx="778" dy="514" grid="1" gridSize="10" guides="1" tooltips="1" connect="1" arrows="1" fold="1" page="1" pageScale="1" pageWidth="850" pageHeight="1100" math="0" shadow="0">
      <root>
        <mxCell id="0" />
        <mxCell id="1" parent="0" />
        <mxCell id="QwUKmcaIpJYNgvK10ySz-1" value="Người dùng" style="shape=umlActor;verticalLabelPosition=bottom;verticalAlign=top;html=1;outlineConnect=0;" vertex="1" parent="1">
          <mxGeometry x="180" y="240" width="30" height="60" as="geometry" />
        </mxCell>
        <mxCell id="QwUKmcaIpJYNgvK10ySz-2" value="Xem danh sách các báo cáo" style="ellipse;whiteSpace=wrap;html=1;" vertex="1" parent="1">
          <mxGeometry x="300" y="110" width="160" height="80" as="geometry" />
        </mxCell>
        <mxCell id="QwUKmcaIpJYNgvK10ySz-3" value="Xem chi tiết báo cáo" style="ellipse;whiteSpace=wrap;html=1;" vertex="1" parent="1">
          <mxGeometry x="307.5" y="210" width="152.5" height="80" as="geometry" />
        </mxCell>
        <mxCell id="QwUKmcaIpJYNgvK10ySz-4" value="Sửa, Xóa báo cáo&amp;nbsp;" style="ellipse;whiteSpace=wrap;html=1;" vertex="1" parent="1">
          <mxGeometry x="305" y="300" width="150" height="70" as="geometry" />
        </mxCell>
        <mxCell id="QwUKmcaIpJYNgvK10ySz-6" value="Cập nhật tình trạng cho báo cáo" style="ellipse;whiteSpace=wrap;html=1;" vertex="1" parent="1">
          <mxGeometry x="306.25" y="390" width="147.5" height="80" as="geometry" />
        </mxCell>
        <mxCell id="QwUKmcaIpJYNgvK10ySz-7" value="" style="endArrow=classic;html=1;rounded=0;" edge="1" parent="1" source="QwUKmcaIpJYNgvK10ySz-1" target="QwUKmcaIpJYNgvK10ySz-2">
          <mxGeometry width="50" height="50" relative="1" as="geometry">
            <mxPoint x="380" y="290" as="sourcePoint" />
            <mxPoint x="430" y="240" as="targetPoint" />
          </mxGeometry>
        </mxCell>
        <mxCell id="QwUKmcaIpJYNgvK10ySz-8" value="" style="endArrow=classic;html=1;rounded=0;" edge="1" parent="1" source="QwUKmcaIpJYNgvK10ySz-1" target="QwUKmcaIpJYNgvK10ySz-3">
          <mxGeometry width="50" height="50" relative="1" as="geometry">
            <mxPoint x="240" y="308" as="sourcePoint" />
            <mxPoint x="361" y="230" as="targetPoint" />
          </mxGeometry>
        </mxCell>
        <mxCell id="QwUKmcaIpJYNgvK10ySz-9" value="" style="endArrow=classic;html=1;rounded=0;" edge="1" parent="1" source="QwUKmcaIpJYNgvK10ySz-1" target="QwUKmcaIpJYNgvK10ySz-4">
          <mxGeometry width="50" height="50" relative="1" as="geometry">
            <mxPoint x="240" y="338" as="sourcePoint" />
            <mxPoint x="361" y="260" as="targetPoint" />
          </mxGeometry>
        </mxCell>
        <mxCell id="QwUKmcaIpJYNgvK10ySz-10" value="" style="endArrow=classic;html=1;rounded=0;" edge="1" parent="1" source="QwUKmcaIpJYNgvK10ySz-1" target="QwUKmcaIpJYNgvK10ySz-6">
          <mxGeometry width="50" height="50" relative="1" as="geometry">
            <mxPoint x="490" y="368" as="sourcePoint" />
            <mxPoint x="611" y="290" as="targetPoint" />
          </mxGeometry>
        </mxCell>
        <mxCell id="QwUKmcaIpJYNgvK10ySz-11" value="UC Quản lý báo cáo cá nhân" style="shape=umlFrame;whiteSpace=wrap;html=1;pointerEvents=0;width=110;height=30;" vertex="1" parent="1">
          <mxGeometry x="250" y="70" width="260" height="420" as="geometry" />
        </mxCell>
      </root>
    </mxGraphModel>
  </diagram>
</mxfile>
